<?xml version="1.0" standalone="no"?>
<!DOCTYPE svg PUBLIC "-//W3C//DTD SVG 20010904//EN"
 "http://www.w3.org/TR/2001/REC-SVG-20010904/DTD/svg10.dtd">
<svg version="1.0" xmlns="http://www.w3.org/2000/svg"
 width="700.000000pt" height="700.000000pt" viewBox="0 0 700.000000 700.000000"
 preserveAspectRatio="xMidYMid meet">
<metadata>
Created by potrace 1.14, written by Peter Selinger 2001-2017
</metadata>
<g transform="translate(0.000000,700.000000) scale(0.100000,-0.100000)"
fill="#000000" stroke="none">
<path d="M0 3500 l0 -3500 3500 0 3500 0 0 3500 0 3500 -3500 0 -3500 0 0
-3500z m3100 3123 c18 -16 67 -98 114 -188 253 -488 424 -821 647 -1265 277
-550 364 -715 575 -1095 160 -287 210 -360 346 -514 125 -140 168 -199 168
-230 0 -14 -14 -49 -30 -78 -24 -42 -37 -54 -67 -62 -51 -14 -227 -14 -793 3
-1110 34 -1224 33 -1265 -8 -14 -14 -27 -48 -36 -92 -17 -85 -17 -307 1 -389
20 -94 69 -222 96 -247 13 -13 24 -28 24 -34 0 -5 14 -29 31 -52 70 -95 163
-114 899 -177 412 -36 553 -49 1055 -100 571 -59 746 -82 765 -101 12 -11 16
-48 18 -160 5 -180 2 -184 -97 -184 -74 0 -260 20 -456 50 -167 25 -553 63
-965 95 -179 14 -406 35 -505 46 -99 12 -220 25 -270 30 -150 15 -1187 23
-1390 10 -160 -10 -182 -13 -200 -32 -19 -20 -19 -21 -1 -32 10 -7 32 -22 50
-34 87 -62 326 -190 1266 -683 919 -482 1286 -684 1320 -725 20 -25 -26 -27
-261 -16 -303 16 -449 32 -449 51 0 5 -17 14 -37 20 -50 16 -482 224 -758 365
-121 62 -404 206 -630 320 -225 114 -430 221 -454 237 -23 16 -66 40 -95 55
-28 14 -78 47 -111 73 -91 73 -253 242 -270 283 -16 38 -20 158 -8 218 10 51
96 130 196 179 89 44 216 74 448 104 167 21 210 47 296 178 54 83 96 187 133
331 52 200 72 344 135 953 25 242 61 560 80 705 19 145 51 433 70 639 42 437
65 645 100 899 14 100 28 220 31 265 6 79 6 84 -17 99 -18 13 -47 17 -124 18
-163 1 -266 13 -282 35 -7 10 -13 24 -13 31 0 20 54 40 130 48 100 11 198 34
280 68 79 32 144 69 155 87 10 17 46 29 87 29 28 1 46 -6 68 -26z"/>
<path d="M3197 5373 c-23 -38 -177 -1407 -177 -1570 0 -85 12 -92 172 -103
171 -13 814 -12 860 0 38 11 51 29 41 58 -4 9 -32 60 -63 112 -31 52 -114 205
-185 340 -70 135 -156 297 -190 360 -35 63 -131 246 -215 405 -201 384 -227
425 -243 398z"/>
</g>
</svg>
