<?xml version="1.0" standalone="no"?>
<!DOCTYPE svg PUBLIC "-//W3C//DTD SVG 20010904//EN"
 "http://www.w3.org/TR/2001/REC-SVG-20010904/DTD/svg10.dtd">
<svg version="1.0" xmlns="http://www.w3.org/2000/svg"
 width="260.000000pt" height="260.000000pt" viewBox="0 0 260.000000 260.000000"
 preserveAspectRatio="xMidYMid meet">
<metadata>
Created by potrace 1.14, written by Peter Selinger 2001-2017
</metadata>
<g transform="translate(0.000000,260.000000) scale(0.100000,-0.100000)"
fill="#000000" stroke="none">
<path d="M0 1300 l0 -1300 1300 0 1300 0 0 1300 0 1300 -1300 0 -1300 0 0
-1300z m1258 1130 c14 -25 103 -198 197 -385 205 -404 216 -426 325 -615 48
-83 122 -191 145 -210 10 -8 14 -29 13 -62 l-1 -50 -166 6 c-91 3 -277 9 -413
12 l-247 7 -7 -39 c-5 -22 -8 -73 -9 -114 0 -62 5 -85 28 -135 16 -33 43 -72
60 -86 31 -25 40 -27 227 -38 107 -7 287 -23 399 -37 112 -13 210 -24 217 -24
11 0 14 -18 14 -71 l0 -71 -27 6 c-120 24 -658 70 -963 82 -155 6 -334 -6
-353 -25 -13 -13 54 -55 268 -166 66 -34 163 -85 215 -112 52 -28 125 -66 162
-86 75 -39 117 -67 102 -67 -5 0 -16 6 -23 13 -10 10 -11 9 -6 -5 5 -14 2 -18
-13 -18 -12 0 -23 4 -26 8 -3 5 -28 6 -56 2 -32 -4 -54 -3 -58 4 -8 12 -52 17
-52 6 0 -11 -49 12 -295 135 -295 148 -375 210 -375 291 0 52 10 69 58 101 39
26 63 33 139 42 51 5 106 17 122 26 79 40 127 180 146 430 4 44 13 125 20 180
8 55 19 154 25 220 6 66 22 206 35 310 13 105 27 224 30 265 3 41 10 102 14
135 5 33 7 63 4 68 -2 4 -43 7 -89 7 -64 0 -85 3 -82 12 3 8 26 14 58 15 53 3
110 26 159 64 34 27 49 21 79 -31z"/>
<path d="M1267 1960 c-3 -25 -19 -164 -37 -310 -17 -146 -31 -282 -30 -302 l0
-36 63 -6 c106 -9 387 -14 387 -6 0 9 -90 181 -209 400 -26 47 -67 124 -91
172 -25 48 -52 98 -62 110 -16 22 -16 22 -21 -22z"/>
</g>
</svg>
