<svg width="1547" height="575" viewBox="0 0 1547 575" fill="none" xmlns="http://www.w3.org/2000/svg">
<path fill-rule="evenodd" clip-rule="evenodd" d="M158.977 4.4915C153.198 9.6335 140.647 16.1265 131.977 18.4585C128.677 19.3465 121.139 20.3375 115.227 20.6605L104.477 21.2485V24.6075V27.9655H126.477C146.91 27.9655 148.477 28.0925 148.477 29.7465C148.477 32.4185 115.834 325.557 113.452 344.273C107.712 389.382 101.196 409.368 87.8892 422.681C80.0092 430.565 74.5532 432.678 58.9562 433.887C33.2562 435.879 18.3342 440.446 8.79318 449.241C2.05218 455.455 0.028214 459.996 0.000214033 468.965C-0.030786 479.043 3.30121 485.888 12.9172 495.499C25.8192 508.394 47.3622 521.413 95.9772 545.698L119.977 557.688L137.477 558.314C147.102 558.658 164.202 559.203 175.477 559.526L195.977 560.114L188.477 555.911C184.352 553.6 160.277 541.01 134.977 527.932C65.6152 492.077 50.8932 483.786 40.6832 474.836L37.3892 471.949L39.8742 471.004C50.8412 466.834 102.104 464.848 146.477 466.874C247.201 471.473 359.972 483.535 642.977 519.973C810.899 541.594 865.84 547.839 906.337 549.905C952.507 552.261 985.381 542.217 1008.13 518.802C1015.84 510.868 1022.1 501.147 1029.51 485.595C1045.55 451.918 1051.79 419.924 1061.98 319.099C1066.95 269.89 1070.39 241.2 1073.56 222.531C1075.35 212 1082.57 178.417 1084.06 173.715C1084.54 172.188 1083.89 171.965 1078.92 171.965C1069.06 171.965 1038.77 177.335 1036.65 179.463C1035.69 180.421 1028.91 231.408 1024.48 270.965L1022.41 289.465L1016.08 302.502C1004.35 326.663 988.182 349.938 970.012 368.802C959.639 379.571 951.966 385.645 942.477 390.596C937.024 393.441 936.803 393.468 916.584 393.79L896.192 394.116L896.869 384.29C901.389 318.745 907.741 258.222 914.506 216.254C917.473 197.852 917.501 194.136 914.72 188.465C911.801 182.513 905.061 176.957 900.777 176.971C899.787 176.974 894.365 178.768 888.729 180.958C877.626 185.27 860.052 190.188 849.117 192.044C842.276 193.205 842.251 193.222 840.237 197.776C839.125 200.287 837.988 205.184 837.71 208.655L837.203 214.965H854.84C864.54 214.965 872.477 215.338 872.477 215.793C872.477 216.248 871.796 226.711 870.964 239.043C867.698 287.466 863.031 340.433 857.924 387.059C855.686 407.487 855.591 409.992 856.926 413.19C863.299 428.44 899.021 434.749 928.349 425.803C944.746 420.801 958.958 411.636 974.512 396.033C990.915 379.578 1004.77 360.525 1014.21 341.452C1016.25 337.334 1018.41 333.965 1019.01 333.965C1019.6 333.965 1020.91 334.559 1021.9 335.283C1023.63 336.55 1023.62 337.4 1021.57 357.533C1016.48 407.475 1009.74 439.459 997.846 469.965C989.878 490.41 980.9 504.645 971.612 511.566L966.977 515.021L922.477 514.632C880.883 514.268 876.181 514.041 850.477 511.166C797.253 505.212 742.654 498.443 622.977 482.961C399.971 454.113 273.164 440.241 178.977 434.388L167.977 433.704L160.15 426.659C153.845 420.984 151.553 418.084 148.365 411.743C143.62 402.306 138.83 388.352 137.971 381.465C137.44 377.203 141.569 337.539 142.658 336.45C142.838 336.27 188.863 337.196 244.936 338.507C301.009 339.817 347.056 340.72 347.262 340.513C347.468 340.307 347.894 334.024 348.207 326.552C348.693 314.954 348.559 312.965 347.293 312.965C343.781 312.965 332.742 299.386 320.515 280.025C302.012 250.727 286.265 221.368 239.226 128.465C201.211 53.3875 182.687 17.5505 175.966 6.0825C172.469 0.114499 172.279 -0.0335112 168.179 0.00348875C164.649 0.0364888 163.177 0.753495 158.977 4.4915ZM432.707 78.5155C423.458 81.0065 415.57 85.9525 413.037 90.8495C411.215 94.3725 408.999 109.924 409.841 113.278C410.857 117.327 415.174 121.684 419.994 123.525C423.514 124.869 426.619 125.131 434.716 124.765C446.3 124.24 452.722 122.045 458.208 116.736C462.006 113.061 462.929 110.43 464.489 98.8335C465.493 91.3685 465.436 89.7865 464.065 87.1345C459.508 78.3225 446.601 74.7755 432.707 78.5155ZM1186.71 78.5155C1177.46 81.0065 1169.57 85.9525 1167.04 90.8495C1165.22 94.3725 1163 109.924 1163.84 113.278C1164.86 117.327 1169.17 121.684 1173.99 123.525C1177.51 124.869 1180.62 125.131 1188.72 124.765C1200.3 124.24 1206.72 122.045 1212.21 116.736C1216.01 113.061 1216.93 110.43 1218.49 98.8335C1219.49 91.3685 1219.44 89.7865 1218.07 87.1345C1213.51 78.3225 1200.6 74.7755 1186.71 78.5155ZM230.919 206.325C256.588 254.648 277.453 294.292 277.284 294.423C276.656 294.912 164.617 291.445 164.096 290.921C163.798 290.621 167.811 251.714 173.015 204.461C178.219 157.208 182.477 118.101 182.477 117.556C182.477 116.932 182.805 116.917 183.362 117.515C183.848 118.037 205.249 158.002 230.919 206.325ZM423.477 180.598C413.428 184.752 394.029 190.247 383.308 191.976L375.679 193.208L373.578 199.608C372.422 203.128 371.477 208.023 371.477 210.486V214.965H390.977C401.702 214.965 410.477 215.219 410.477 215.528C410.477 215.838 409.566 228.326 408.452 243.278C404.26 299.536 398.952 352.727 393.912 388.965C392.574 398.59 391.488 409.165 391.5 412.465C391.538 423.406 396.995 430.729 405.818 431.679C408.942 432.016 412.218 431.258 418.977 428.637C430.785 424.058 444.195 420.476 458.929 417.966C465.502 416.846 471.244 415.375 471.688 414.697C472.902 412.843 475.287 404.084 476.039 398.715L476.704 393.965H456.091H435.477V389.056C435.477 366.351 443.755 262.357 449.357 214.692C451.713 194.638 450.949 189.482 444.605 182.627C441.38 179.142 437.332 176.947 434.277 177.025C433.012 177.057 428.152 178.665 423.477 180.598ZM581.609 180.601C571.447 184.8 559.63 188.249 544.977 191.291L533.977 193.575L531.762 200.02C530.544 203.565 529.532 208.378 529.512 210.715L529.477 214.965H547.977H566.477V218.023C566.477 223.88 563.407 271.639 561.435 296.465C557.609 344.615 552.186 383.538 544.053 421.215L541.733 431.965L548.855 431.961C552.772 431.959 560.027 431.284 564.977 430.462C573.742 429.006 588.235 425.54 589.076 424.699C590.325 423.45 596.873 367.456 599.839 332.66C601.171 317.034 601.238 316.752 605.754 307.66C619.58 279.83 644.132 246.962 663.569 230.262C667.644 226.762 674.765 222.002 679.396 219.682L687.814 215.465L707.146 215.156L726.477 214.846L726.471 218.656C726.463 223.367 723.031 269.342 720.925 292.965C717.337 333.187 713.554 366.758 708.904 399.618C706.398 417.33 708.101 424.092 716.501 429.767C721.043 432.837 725.76 432.37 738.887 427.554C750.697 423.222 764.577 419.604 777.264 417.552C782.356 416.729 786.95 415.791 787.473 415.468C788.962 414.547 792.477 402.179 792.477 397.861V393.965H771.925H751.373L751.934 385.715C752.242 381.177 752.964 368.915 753.538 358.465C755.851 316.317 760.758 258.717 765.575 217.14C767.797 197.966 767.5 195.236 762.704 190.737C759.504 187.736 751.643 183.661 745.977 182.065C743.777 181.445 737.646 180.485 732.353 179.929C709.477 177.526 684.677 184.208 666.126 197.773C658.35 203.459 643.215 218.158 634.849 228.15C626.08 238.622 614.9 255.669 609.521 266.77C607.071 271.827 604.821 275.956 604.521 275.944C604.222 275.932 602.994 275.144 601.792 274.194L599.608 272.465L604.617 235.465C609.096 202.39 609.503 197.898 608.458 193.114C606.678 184.973 598.459 176.815 592.277 177.054C591.012 177.103 586.211 178.699 581.609 180.601ZM1177.48 180.598C1167.43 184.752 1148.03 190.247 1137.31 191.976L1129.68 193.208L1127.58 199.608C1126.42 203.128 1125.48 208.023 1125.48 210.486V214.965H1144.98C1155.7 214.965 1164.48 215.219 1164.48 215.528C1164.48 215.838 1163.57 228.326 1162.45 243.278C1158.26 299.536 1152.95 352.727 1147.91 388.965C1146.57 398.59 1145.49 409.165 1145.5 412.465C1145.54 423.406 1151 430.729 1159.82 431.679C1162.94 432.016 1166.22 431.258 1172.98 428.637C1184.79 424.058 1198.2 420.476 1212.93 417.966C1219.5 416.846 1225.24 415.375 1225.69 414.697C1226.9 412.843 1229.29 404.084 1230.04 398.715L1230.7 393.965H1210.09H1189.48V389.056C1189.48 366.351 1197.76 262.357 1203.36 214.692C1205.71 194.638 1204.95 189.482 1198.61 182.627C1195.38 179.142 1191.33 176.947 1188.28 177.025C1187.01 177.057 1182.15 178.665 1177.48 180.598ZM1335.61 180.601C1325.45 184.8 1313.63 188.249 1298.98 191.291L1287.98 193.575L1285.76 200.02C1284.54 203.565 1283.53 208.378 1283.51 210.715L1283.48 214.965H1301.98H1320.48V218.023C1320.48 223.88 1317.41 271.639 1315.44 296.465C1311.61 344.615 1306.19 383.538 1298.05 421.215L1295.73 431.965L1302.86 431.961C1306.77 431.959 1314.03 431.284 1318.98 430.462C1327.74 429.006 1342.24 425.54 1343.08 424.699C1344.33 423.45 1350.87 367.456 1353.84 332.66C1355.17 317.034 1355.24 316.752 1359.75 307.66C1373.58 279.83 1398.13 246.962 1417.57 230.262C1421.64 226.762 1428.77 222.002 1433.4 219.682L1441.81 215.465L1461.15 215.156L1480.48 214.846L1480.47 218.656C1480.46 223.367 1477.03 269.342 1474.93 292.965C1471.34 333.187 1467.55 366.758 1462.9 399.618C1460.4 417.33 1462.1 424.092 1470.5 429.767C1475.04 432.837 1479.76 432.37 1492.89 427.554C1504.7 423.222 1518.58 419.604 1531.26 417.552C1536.36 416.729 1540.95 415.791 1541.47 415.468C1542.96 414.547 1546.48 402.179 1546.48 397.861V393.965H1525.93H1505.37L1505.93 385.715C1506.24 381.177 1506.96 368.915 1507.54 358.465C1509.85 316.317 1514.76 258.717 1519.58 217.14C1521.8 197.966 1521.5 195.236 1516.7 190.737C1513.5 187.736 1505.64 183.661 1499.98 182.065C1497.78 181.445 1491.65 180.485 1486.35 179.929C1463.48 177.526 1438.68 184.208 1420.13 197.773C1412.35 203.459 1397.22 218.158 1388.85 228.15C1380.08 238.622 1368.9 255.669 1363.52 266.77C1361.07 271.827 1358.82 275.956 1358.52 275.944C1358.22 275.932 1356.99 275.144 1355.79 274.194L1353.61 272.465L1358.62 235.465C1363.1 202.39 1363.5 197.898 1362.46 193.114C1360.68 184.973 1352.46 176.815 1346.28 177.054C1345.01 177.103 1340.21 178.699 1335.61 180.601ZM1350.4 458.888C1348.02 461.267 1347.48 462.663 1347.48 466.388C1347.48 472.478 1349.9 474.965 1355.84 474.965C1365.62 474.965 1370.64 464.272 1363.99 457.621C1362.94 456.571 1360.69 455.965 1357.83 455.965C1354.18 455.965 1352.77 456.522 1350.4 458.888ZM1049.63 514.216C1044.5 543.504 1040.06 568.703 1039.77 570.216L1039.24 572.966H1046.28C1053.15 572.966 1053.33 572.901 1053.9 570.216C1054.91 565.414 1069.48 481.607 1069.48 480.598C1069.48 476.995 1072 485.109 1079.94 514.257L1088.98 547.466L1096.11 547.757L1103.24 548.049L1123.61 514.451C1134.81 495.972 1144.1 481.458 1144.26 482.198C1144.48 483.262 1130.68 564.091 1129.05 571.257C1128.68 572.875 1129.37 573.019 1136.23 572.757L1143.82 572.466L1153.1 519.466C1158.2 490.316 1162.62 465.228 1162.9 463.715L1163.43 460.965H1152.13H1140.83L1119.9 496.397C1108.39 515.885 1098.68 531.523 1098.32 531.148C1097.8 530.6 1091.6 507.649 1080.38 464.715L1079.4 460.965H1069.18H1058.96L1049.63 514.216ZM1214.48 488.59C1199.64 491.459 1186.19 500.19 1179.25 511.465C1173.77 520.371 1172.12 526.655 1172.05 538.966C1171.99 548.9 1172.29 551.135 1174.25 555.385C1181.09 570.219 1195.02 577.566 1208.75 573.574C1214.65 571.861 1223.67 564.708 1226.42 559.572C1228.31 556.047 1229.48 556.293 1229.48 560.216C1229.49 566.778 1234.58 571.905 1242.52 573.34C1245.95 573.959 1246.15 573.825 1248.27 569.446C1251.02 563.801 1251.01 563.263 1248.23 562.414C1244.08 561.15 1242.48 558.905 1242.48 554.349C1242.48 551.98 1244.71 537.572 1247.43 522.332C1250.15 507.091 1252.16 494.264 1251.89 493.829C1251.62 493.394 1248.38 492.096 1244.69 490.944C1238.09 488.886 1220.17 487.489 1214.48 488.59ZM1311.48 489.441C1305.33 491.433 1299.97 496.127 1296.18 502.838L1293 508.465L1292.31 503.652C1291.41 497.335 1289.24 494.215 1284.15 491.903C1277.22 488.759 1275.29 489.241 1272.98 494.685C1271.88 497.277 1270.83 499.751 1270.64 500.182C1270.46 500.612 1271.27 500.965 1272.44 500.965C1275.44 500.965 1279.48 505.334 1279.48 508.58C1279.48 510.86 1270.51 563.754 1268.93 570.759C1268.43 573.008 1268.56 573.048 1275.64 572.759L1282.87 572.466L1285.69 555.966C1290.43 528.17 1294.31 517.082 1301.96 509.427C1307.71 503.68 1314.18 501.304 1320.53 502.605L1325.37 503.598L1328.33 497.031C1329.96 493.42 1330.92 490.07 1330.46 489.587C1328.95 487.999 1316.23 487.902 1311.48 489.441ZM1418.27 489.757C1411.56 492.195 1405.1 497.098 1400.91 502.926C1398.92 505.697 1397.18 507.965 1397.04 507.965C1396.9 507.965 1397.55 503.915 1398.48 498.965L1400.17 489.965H1393.4C1386.83 489.965 1386.62 490.043 1386.06 492.715C1384.63 499.558 1372.48 569.939 1372.48 571.366C1372.48 572.677 1373.71 572.966 1379.31 572.966H1386.15L1389.34 554.216C1391.1 543.904 1393.71 532.024 1395.14 527.818C1402.01 507.711 1420.52 495.052 1432.04 502.596C1434.9 504.473 1437.48 509.826 1437.48 513.901C1437.48 516.397 1430.36 558.206 1427.88 570.216L1427.32 572.966H1434.38C1440.88 572.966 1441.48 572.787 1441.97 570.716C1444.2 561.163 1451.47 515.368 1451.46 510.976C1451.43 504 1448.96 498.517 1443.7 493.783C1437.15 487.876 1427.61 486.365 1418.27 489.757ZM1499.98 489.351C1479.98 494.214 1466.48 513.246 1466.48 536.57C1466.48 567.256 1489.7 581.759 1522.34 571.449L1530.14 568.983L1529.69 563.225C1529.44 560.058 1529.07 557.29 1528.88 557.075C1528.69 556.86 1524.93 557.872 1520.54 559.325C1511.18 562.419 1500.57 562.866 1494.7 560.413C1488.05 557.637 1482.7 550.975 1481.07 543.466L1480.43 540.466L1493.93 540.793C1505.09 541.063 1508.87 540.757 1515.7 539.028C1529.13 535.633 1537.2 528.638 1539.49 518.393C1544 498.295 1523.91 483.531 1499.98 489.351ZM1345.08 492.715C1343.64 499.769 1331.48 570.239 1331.48 571.518C1331.48 572.644 1333.03 572.966 1338.48 572.966C1342.33 572.966 1345.48 572.546 1345.48 572.034C1345.48 571.522 1348.63 553.184 1352.47 531.284C1356.32 509.384 1359.47 491.128 1359.47 490.715C1359.48 490.302 1356.36 489.965 1352.56 489.965C1345.81 489.965 1345.62 490.034 1345.08 492.715ZM1235.71 501.796C1236.87 502.963 1236.27 507.526 1232.33 527.466C1228.08 548.998 1218.02 561.966 1205.57 561.966C1192.17 561.966 1184.01 549.408 1186.41 532.463C1188.68 516.416 1198.46 504.779 1212.98 500.855C1217.13 499.734 1234.36 500.448 1235.71 501.796ZM1518.49 501.783C1520.72 502.946 1522.8 505.238 1524.26 508.14C1526.24 512.058 1526.42 513.282 1525.57 517.073C1523.53 526.176 1515.12 529.975 1497.05 529.952C1480.14 529.931 1479.72 529.619 1483.4 519.918C1486.76 511.079 1493.39 504.188 1501.23 501.392C1506.63 499.461 1514.38 499.637 1518.49 501.783Z" fill="#2C4291"/>
</svg>